Coordinates
version=1
nRows=32
nColumns=22
inDegrees=yes

Units are S.I. units (second, meters, Newtons, ...)
If the header above contains a line with 'inDegrees', this indicates whether rotational values are in degrees (yes) or radians (no).

endheader
time	pelvis_tilt	pelvis_list	pelvis_rotation	pelvis_tx	pelvis_ty	pelvis_tz	hip_flexion_r	hip_adduction_r	hip_rotation_r	knee_angle_r	ankle_angle_r	subtalar_angle_r	hip_flexion_l	hip_adduction_l	hip_rotation_l	knee_angle_l	ankle_angle_l	subtalar_angle_l	lumbar_extension	lumbar_bending	lumbar_rotation
      4.20000000	      3.26005106	      5.39699586	    174.29319358	     -0.32631248	      0.87275427	     -0.46756114	     -6.38416696	      6.14211190	      7.90998065	     -5.50243554	     17.51115734	     -3.69104218	     33.99792301	    -14.68709108	     -3.00468624	    -17.20735541	      5.89721753	      5.11594394	     -3.90468598	      7.26886458	     22.01126418
      4.21000000	      3.35777609	      5.45766972	    173.81542586	     -0.33345786	      0.87129565	     -0.46729729	     -6.53321775	      6.10524018	      8.18975426	     -6.02759812	     18.09967404	     -3.68400990	     34.14027953	    -14.98018619	     -2.51697576	    -16.01491943	      5.71697774	      5.10683095	     -3.83664165	      7.25794715	     22.18319479
      4.22000000	      3.45364517	      5.48159879	    173.34801377	     -0.34072852	      0.86977618	     -0.46689714	     -6.66551276	      6.02287772	      8.42611868	     -6.59603615	     18.71724198	     -3.68271861	     34.27360829	    -15.24387630	     -2.13345567	    -15.02646175	      5.58071177	      5.06964434	     -3.76558082	      7.21059581	     22.32961878
      4.23000000	      3.55046184	      5.47018184	    172.89362814	     -0.34815255	      0.86819111	     -0.46633482	     -6.79127170	      5.89264823	      8.62450607	     -7.18476415	     19.34674504	     -3.67207004	     34.40960521	    -15.47155438	     -1.86241408	    -14.27515817	      5.49708068	      4.97609483	     -3.68073307	      7.13435336	     22.44534015
      4.24000000	      3.59861262	      5.48458500	    172.47100021	     -0.35570317	      0.86662900	     -0.46561025	     -6.98828519	      5.77411445	      8.77809032	     -7.75564028	     19.93833856	     -3.65962033	     34.50697480	    -15.70406967	     -1.66700152	    -13.77260641	      5.40676100	      4.88464857	     -3.65509569	      7.08902725	     22.52588767
      4.25000000	      3.64952172	      5.47190097	    172.06068292	     -0.36341517	      0.86500659	     -0.46472411	     -7.19270771	      5.61029279	      8.91192921	     -8.31846036	     20.52070934	     -3.62280392	     34.61464725	    -15.89729160	     -1.57486773	    -13.53882871	      5.37701911	      4.75187514	     -3.61439150	      7.02170187	     22.58235001
      4.26000000	      3.68831561	      5.46329695	    171.67204263	     -0.37127947	      0.86335364	     -0.46367366	     -7.43388586	      5.43018737	      9.02409575	     -8.85296151	     21.06476620	     -3.55412101	     34.72835572	    -16.06933213	     -1.53644425	    -13.58944780	      5.37935665	      4.59230792	     -3.58198852	      6.96170902	     22.63574287
      4.27000000	      3.74395120	      5.45258132	    171.30070593	     -0.37932115	      0.86164275	     -0.46245145	     -7.69268560	      5.22459305	      9.14218384	     -9.33684926	     21.58058188	     -3.39645424	     34.86906903	    -16.21486181	     -1.57953793	    -13.90231653	      5.36933350	      4.34569581	     -3.51914414	      6.91200490	     22.65028124
      4.28000000	      3.77933361	      5.46493473	    170.95234806	     -0.38754174	      0.85993150	     -0.46104812	     -8.00609885	      5.01324653	      9.25329845	     -9.78162423	     22.03360351	     -3.19207266	     34.99147412	    -16.34632798	     -1.63288906	    -14.46022576	      5.39527765	      4.10738387	     -3.47494594	      6.89204972	     22.66728607
      4.29000000	      3.81284554	      5.49199241	    170.62344602	     -0.39596545	      0.85820922	     -0.45947869	     -8.36449026	      4.78778611	      9.38395040	    -10.16715546	     22.42641281	     -2.93143259	     35.10551745	    -16.45819933	     -1.72154006	    -15.23147404	      5.41809216	      3.87624252	     -3.42225567	      6.89448226	     22.66724380
      4.30000000	      3.83082528	      5.53999402	    170.32258752	     -0.40461727	      0.85649762	     -0.45773946	     -8.79187027	      4.55338671	      9.52314734	    -10.47941899	     22.74305952	     -2.75313849	     35.18922929	    -16.55060891	     -1.82724773	    -16.18007046	      5.46714581	      3.74879400	     -3.37487245	      6.92200822	     22.64190540
      4.31000000	      3.89348951	      5.58857110	    170.01956643	     -0.41343265	      0.85474486	     -0.45584529	     -9.19315090	      4.29140217	      9.69498778	    -10.75947660	     22.99694052	     -2.23776321	     35.29516359	    -16.62521837	     -1.98904229	    -17.24911870	      5.37957824	      3.47240935	     -3.26629482	      6.96696488	     22.62124432
      4.32000000	      3.94233350	      5.65900338	    169.71765199	     -0.42244899	      0.85304316	     -0.45385798	     -9.64813553	      4.02735293	      9.91002917	    -10.98704821	     23.15297208	     -2.02087510	     35.35767553	    -16.70739686	     -2.20958232	    -18.41298203	      5.27678035	      3.39242742	     -3.16514735	      7.03393703	     22.59261537
      4.33000000	      4.03882996	      5.72438834	    169.41762916	     -0.43158888	      0.85133998	     -0.45174569	    -10.04821980	      3.74060094	     10.12581374	    -11.22152748	     23.23863533	     -1.42138548	     35.44612839	    -16.77513923	     -2.46257307	    -19.60660225	      4.94505050	      3.25108504	     -3.00101016	      7.10775215	     22.55483470
      4.34000000	      4.13985138	      5.78849046	    169.10810744	     -0.44084853	      0.84971319	     -0.44957247	    -10.44071836	      3.43975415	     10.39401752	    -11.46457703	     23.24165130	     -1.01060192	     35.53025736	    -16.85108370	     -2.78876509	    -20.82627129	      4.46013357	      3.22837592	     -2.82692240	      7.17956120	     22.51120102
      4.35000000	      4.26209223	      5.82174388	    168.80051841	     -0.45021026	      0.84816438	     -0.44731195	    -10.79633321	      3.09904726	     10.69127409	    -11.72127807	     23.16597031	     -0.62629772	     35.65490337	    -16.90913758	     -3.18276741	    -22.05772101	      3.76224480	      3.25818003	     -2.61657627	      7.22152132	     22.45132678
      4.36000000	      4.39715507	      5.81905438	    168.49592051	     -0.45961342	      0.84673795	     -0.44500068	    -11.09397447	      2.72252493	     11.02270640	    -12.04009288	     23.01598929	     -0.18169393	     35.83448206	    -16.95157782	     -3.61742039	    -23.29615798	      2.84033872	      3.34005990	     -2.38405609	      7.21738868	     22.38651016
      4.37000000	      4.51896421	      5.78158390	    168.20407933	     -0.46904267	      0.84549451	     -0.44263403	    -11.35709127	      2.31183622	     11.37634976	    -12.42433783	     22.79164809	      0.25217572	     36.06487507	    -16.97729652	     -4.08387192	    -24.56573546	      1.77490092	      3.44568343	     -2.16323178	      7.16564676	     22.30219816
      4.38000000	      4.61473998	      5.71411199	    167.93924835	     -0.47847947	      0.84447169	     -0.44020904	    -11.58475782	      1.87682838	     11.73031961	    -12.89849214	     22.49279737	      0.80461532	     36.34425857	    -16.97851544	     -4.53670277	    -25.89824034	      0.70625548	      3.56014985	     -1.97259188	      7.06723309	     22.17092075
      4.39000000	      4.66952634	      5.60740469	    167.67590142	     -0.48792619	      0.84370266	     -0.43780192	    -11.78818219	      1.40611156	     12.11105754	    -13.46410395	     22.12748056	      1.31706638	     36.63946786	    -16.95747214	     -4.98628742	    -27.32559804	     -0.17689829	      3.60345659	     -1.82710305	      6.90078107	     22.05439811
      4.40000000	      4.67198864	      5.46801194	    167.43144852	     -0.49738204	      0.84321126	     -0.43539694	    -11.97063519	      0.90894994	     12.48139023	    -14.13752556	     21.69199617	      1.88468084	     36.91687165	    -16.88943083	     -5.36838096	    -28.84362133	     -0.73993694	      3.56736192	     -1.74095400	      6.67059475	     21.93016666
      4.41000000	      4.61525129	      5.29893993	    167.21350619	     -0.50684196	      0.84301467	     -0.43299040	    -12.13490564	      0.39077144	     12.83367364	    -14.92427951	     21.18459885	      2.53927477	     37.13883654	    -16.75335125	     -5.65076129	    -30.42354902	     -0.91124325	      3.44856329	     -1.72179064	      6.37764594	     21.79623105
      4.42000000	      4.50448145	      5.10655203	    167.01933378	     -0.51628207	      0.84311149	     -0.43059790	    -12.26044938	     -0.13521768	     13.16994840	    -15.85049422	     20.57867545	      3.26993349	     37.27781001	    -16.54553284	     -5.83466746	    -32.01503979	     -0.69462642	      3.27408113	     -1.76502890	      6.02911721	     21.65883277
      4.43000000	      4.35450800	      4.90589439	    166.84784580	     -0.52566500	      0.84346720	     -0.42822571	    -12.31432701	     -0.64321589	     13.49169627	    -16.94815971	     19.87412267	      4.10360238	     37.32281868	    -16.27889291	     -5.93847179	    -33.56166957	     -0.15210014	      3.06932892	     -1.85971623	      5.64298861	     21.52217990
      4.44000000	      4.18763558	      4.71266311	    166.68698435	     -0.53494015	      0.84402913	     -0.42589408	    -12.25353739	     -1.10674164	     13.80723623	    -18.25182198	     19.05402732	      5.01595807	     37.27992316	    -15.98621537	     -6.01317815	    -35.01762977	      0.59668993	      2.86365621	     -1.98740239	      5.24427321	     21.39622769
      4.45000000	      4.02808176	      4.54383925	    166.54543423	     -0.54407480	      0.84473220	     -0.42357193	    -12.04333868	     -1.49792805	     14.10362639	    -19.77763206	     18.08866960	      6.00839938	     37.15813363	    -15.68309951	     -6.06738854	    -36.32941482	      1.49045154	      2.66328084	     -2.12567117	      4.86216503	     21.26201469
      4.46000000	      3.89945517	      4.41181262	    166.39426556	     -0.55300490	      0.84550800	     -0.42131045	    -11.62737452	     -1.79641068	     14.38840499	    -21.57574012	     16.96381535	      7.03850951	     36.97397515	    -15.42357345	     -6.18739912	    -37.47925523	      2.42752692	      2.46896614	     -2.25595720	      4.51586442	     21.14776510
      4.47000000	      3.81516652	      4.32063082	    166.23093792	     -0.56169807	      0.84630193	     -0.41909316	    -10.97710792	     -1.99457506	     14.65332362	    -23.66547319	     15.66342322	      8.07831138	     36.73104832	    -15.21651194	     -6.37654375	    -38.43849265	      3.38670420	      2.27779103	     -2.36603724	      4.21795094	     21.05016436
      4.48000000	      3.78814783	      4.26315735	    166.05000731	     -0.57013338	      0.84704856	     -0.41691930	    -10.06559383	     -2.10178070	     14.86363208	    -26.05676621	     14.17699719	      9.07525889	     36.45487419	    -15.07508431	     -6.67430270	    -39.22410419	      4.33728955	      2.09669175	     -2.43944162	      3.96879176	     20.95733661
      4.49000000	      3.81326421	      4.22540958	    165.84640085	     -0.57826886	      0.84772338	     -0.41479437	     -8.88203262	     -2.13730518	     15.00153489	    -28.75895305	     12.52489239	      9.99532680	     36.14591184	    -14.98823051	     -7.07443200	    -39.84155158	      5.26890252	      1.93243638	     -2.48117270	      3.75401957	     20.87070212
      4.50000000	      3.88308441	      4.18625881	    165.62609746	     -0.58608058	      0.84830995	     -0.41269456	     -7.43300774	     -2.13370119	     15.04487533	    -31.74906001	     10.72084112	     10.82069435	     35.81318602	    -14.92810152	     -7.56143777	    -40.30696548	      6.17726064	      1.78667388	     -2.49621559	      3.55418798	     20.77611732
      4.51000000	      3.98196251	      4.12605593	    165.38982917	     -0.59353619	      0.84880979	     -0.41066178	     -5.73048752	     -2.12134735	     14.97847607	    -35.01042542	      8.80871323	     11.49706217	     35.46124617	    -14.87155184	     -8.11147852	    -40.64844054	      7.03493521	      1.66125257	     -2.49688006	      3.33764921	     20.67187107
